<svg width="719" height="448" viewBox="0 0 719 448" fill="none" xmlns="http://www.w3.org/2000/svg">
<g clip-path="url(#clip0_11088_179)">
<rect width="718" height="448" transform="translate(0.6875)" fill="#00C684"/>
<path d="M210.777 259.993C210.777 259.993 175.251 244.878 174.769 221.964C174.288 199.05 197.009 194.621 197.009 194.621L258.338 221.964L210.777 259.993Z" fill="white" stroke="#0F0E42" stroke-width="2" stroke-miterlimit="10" stroke-linecap="round" stroke-linejoin="round"/>
<path d="M463.987 263.173C463.987 263.173 499.513 248.058 499.995 225.144C500.476 202.23 477.755 197.801 477.755 197.801L416.426 225.144L463.987 263.173Z" fill="white" stroke="#0F0E42" stroke-width="2" stroke-miterlimit="10" stroke-linecap="round" stroke-linejoin="round"/>
<path d="M410.36 242.186C410.36 307.655 375.604 322.674 332.953 322.674C290.302 322.674 252.754 307.655 252.754 242.186C252.754 176.717 288.858 93.1484 331.509 93.1484C374.16 93.1484 410.36 176.717 410.36 242.186Z" fill="white" stroke="#0F0E42" stroke-width="2" stroke-miterlimit="10" stroke-linecap="round" stroke-linejoin="round"/>
<path d="M263.73 171.228C263.73 171.228 294.636 189.328 323.808 189.713C352.98 190.098 377.338 185.862 400.733 173.346C396.497 160.06 396.208 156.594 396.208 156.594L269.603 154.668L263.73 171.228Z" fill="#E33825" stroke="#0F0E42" stroke-width="2" stroke-miterlimit="10" stroke-linecap="round" stroke-linejoin="round"/>
<path d="M414.118 126.843C412.866 117.408 408.63 107.877 406.512 103.64C405.742 102.1 405.549 100.367 405.934 98.7302C407.186 92.9536 409.882 78.4157 409.496 62.4336C409.015 41.734 400.832 32.8764 389.856 32.3951C378.88 31.9137 360.588 52.2282 357.41 55.6942C354.233 59.1602 353.848 61.6634 350.19 61.7597C346.531 61.7597 334.593 60.8932 334.593 60.8932H334.304C334.304 60.8932 322.365 60.7969 318.707 60.5081C315.048 60.2192 314.856 57.6198 311.967 53.9612C309.079 50.3027 292.327 28.544 281.351 28.2551C270.376 27.87 261.518 36.0536 259.4 56.657C257.763 72.5428 259.304 87.2732 260.074 93.1461C260.266 94.8791 259.978 96.5158 259.111 98.0563C256.704 102.1 251.698 111.246 249.772 120.585C248.713 125.688 243.899 146.58 263.251 159.385C282.603 172.19 329.779 175.56 329.779 175.56C329.875 175.56 329.875 175.56 329.971 175.56C330.068 175.56 330.068 175.56 330.164 175.56C330.164 175.56 377.532 175.848 397.751 164.584C417.969 153.223 414.792 132.042 414.118 126.843Z" fill="white" stroke="#0F0E42" stroke-width="2" stroke-miterlimit="10" stroke-linecap="round" stroke-linejoin="round"/>
<path d="M283.371 97.6724C283.371 97.6724 306.189 85.5414 316.202 108.841C299.738 108.744 300.701 96.9984 283.371 97.6724Z" fill="white" stroke="#0F0E42" stroke-width="2" stroke-miterlimit="10" stroke-linecap="round" stroke-linejoin="round"/>
<path d="M317.744 91.8947C316.492 94.1091 313.893 92.1836 310.62 90.3543C307.442 88.6213 304.843 87.7548 305.998 85.5404C307.25 83.326 310.812 82.9409 313.989 84.6739C317.359 86.4069 318.996 89.6804 317.744 91.8947Z" fill="#0F0E42" stroke="#0F0E42" stroke-width="2" stroke-miterlimit="10" stroke-linecap="round" stroke-linejoin="round"/>
<path d="M299.064 122.412C299.064 122.412 285.778 112.976 262.094 114.806" stroke="#0F0E42" stroke-width="2" stroke-miterlimit="10" stroke-linecap="round" stroke-linejoin="round"/>
<path d="M294.252 129.249C294.252 129.249 275.67 124.435 261.902 130.019" stroke="#0F0E42" stroke-width="2" stroke-miterlimit="10" stroke-linecap="round" stroke-linejoin="round"/>
<path d="M293.48 137.914C293.48 137.914 280.386 136.759 266.426 145.424" stroke="#0F0E42" stroke-width="2" stroke-miterlimit="10" stroke-linecap="round" stroke-linejoin="round"/>
<path d="M308.307 132.237C308.307 132.237 307.922 139.843 316.972 138.88C325.926 137.917 324.385 130.793 331.702 131.467" stroke="#0F0E42" stroke-width="2" stroke-miterlimit="10" stroke-linecap="round" stroke-linejoin="round"/>
<path d="M267.293 89.005C267.293 89.005 281.446 69.0756 310.137 62.625C303.301 52.9973 290.785 36.9189 281.254 38.1705C271.626 39.5184 265.272 54.0563 267.293 89.005Z" fill="#E33825" stroke="#0F0E42" stroke-width="2" stroke-miterlimit="10" stroke-linecap="round" stroke-linejoin="round"/>
<path d="M382.538 101.525C382.538 101.525 360.78 87.6615 348.938 110.094C361.357 110.094 365.208 99.5036 382.538 101.525Z" fill="white" stroke="#0F0E42" stroke-width="2" stroke-miterlimit="10" stroke-linecap="round" stroke-linejoin="round"/>
<path d="M348.647 93.0484C349.706 95.359 351.632 92.7595 355.001 91.3154C358.371 89.8712 361.837 89.9675 360.778 87.6568C359.719 85.3462 356.157 84.6722 352.883 86.2127C349.417 87.6568 347.588 90.7377 348.647 93.0484Z" fill="#0F0E42" stroke="#0F0E42" stroke-width="2" stroke-miterlimit="10" stroke-linecap="round" stroke-linejoin="round"/>
<path d="M364.918 124.92C364.918 124.92 382.44 117.026 403.718 121.454" stroke="#0F0E42" stroke-width="2" stroke-miterlimit="10" stroke-linecap="round" stroke-linejoin="round"/>
<path d="M369.152 132.14C369.152 132.14 388.023 128.77 401.309 135.413" stroke="#0F0E42" stroke-width="2" stroke-miterlimit="10" stroke-linecap="round" stroke-linejoin="round"/>
<path d="M369.25 140.898C369.25 140.898 382.44 140.802 395.63 150.43" stroke="#0F0E42" stroke-width="2" stroke-miterlimit="10" stroke-linecap="round" stroke-linejoin="round"/>
<path d="M345.76 121.258C345.76 118.852 337.866 118.081 333.533 117.889L332.185 117.792C331.319 117.792 330.837 117.792 330.837 117.792C326.505 117.696 318.61 117.889 318.418 120.199C318.225 122.606 326.12 126.843 330.452 128.864C330.452 128.864 330.452 128.864 331.8 129.538C332.57 129.249 333.148 128.961 333.148 128.961C337.577 127.228 345.76 123.665 345.76 121.258Z" fill="#CF4832" stroke="#0F0E42" stroke-width="2" stroke-miterlimit="10" stroke-linecap="round" stroke-linejoin="round"/>
<path d="M354.905 134.062C354.905 134.062 354.712 141.668 345.758 140.031C336.901 138.394 339.019 131.366 331.605 131.559" stroke="#0F0E42" stroke-width="2" stroke-miterlimit="10" stroke-linecap="round" stroke-linejoin="round"/>
<path d="M399.098 94.1102C399.098 94.1102 386.582 73.1217 358.469 64.4567C366.075 55.4066 379.746 40.2911 389.181 42.3129C398.616 44.3347 403.815 59.4503 399.098 94.1102Z" fill="#E33825" stroke="#0F0E42" stroke-width="2" stroke-miterlimit="10" stroke-linecap="round" stroke-linejoin="round"/>
<path d="M333.049 216.669C342.142 216.669 349.513 209.298 349.513 200.206C349.513 191.113 342.142 183.742 333.049 183.742C323.957 183.742 316.586 191.113 316.586 200.206C316.586 209.298 323.957 216.669 333.049 216.669Z" fill="#E33825" stroke="#0F0E42" stroke-width="2" stroke-miterlimit="10" stroke-linecap="round" stroke-linejoin="round"/>
<path d="M301.856 98.1497C300.026 97.9571 298.39 98.6311 297.234 99.8827C300.026 102.964 303.396 104.697 306.67 105.563C306.766 105.178 306.862 104.793 306.958 104.311C307.247 101.231 305.033 98.4385 301.856 98.1497Z" fill="#0F0E42" stroke="#0F0E42" stroke-width="2" stroke-miterlimit="10" stroke-linecap="round" stroke-linejoin="round"/>
<path d="M358.565 106.723C361.839 106.145 365.112 104.798 368.097 102.198C366.942 101.043 365.305 100.465 363.572 100.658C360.491 100.946 358.18 103.642 358.565 106.723Z" fill="#0F0E42" stroke="#0F0E42" stroke-width="2" stroke-miterlimit="10" stroke-linecap="round" stroke-linejoin="round"/>
<path d="M283.277 212.427H466.781V202.029C466.781 198.659 463.989 195.867 460.62 195.867H212.416C209.047 195.867 207.121 199.429 207.121 202.029V212.427C271.627 212.427 283.277 212.427 283.277 212.427Z" fill="#0F0E42" stroke="white" stroke-width="2" stroke-miterlimit="10" stroke-linecap="round" stroke-linejoin="round"/>
<path d="M466.781 212.426H207.121V412.394H466.781V212.426Z" fill="#0F0E42" stroke="#E33825" stroke-width="2" stroke-miterlimit="10" stroke-linecap="round" stroke-linejoin="round"/>
<path d="M438.572 201.262H432.699V207.135H438.572V201.262Z" stroke="#0F0E42" stroke-width="2" stroke-miterlimit="10" stroke-linecap="round" stroke-linejoin="round"/>
<path d="M448.489 207.137H442.52" stroke="#0F0E42" stroke-width="2" stroke-miterlimit="10" stroke-linecap="round" stroke-linejoin="round"/>
<path d="M452.242 207.135C452.435 207.038 458.115 201.262 458.115 201.262L452.242 207.135Z" fill="#79DBE8"/>
<path d="M452.242 207.135C452.435 207.038 458.115 201.262 458.115 201.262" stroke="#0F0E42" stroke-width="2" stroke-miterlimit="10" stroke-linecap="round" stroke-linejoin="round"/>
<path d="M452.242 201.262C452.338 201.454 458.115 207.135 458.115 207.135L452.242 201.262Z" fill="#79DBE8"/>
<path d="M452.242 201.262C452.338 201.454 458.115 207.135 458.115 207.135" stroke="#0F0E42" stroke-width="2" stroke-miterlimit="10" stroke-linecap="round" stroke-linejoin="round"/>
<path d="M246.981 224.18H223.008V247.575H246.981V224.18Z" fill="#E33825"/>
<path d="M276.153 224.18H252.18V247.575H276.153V224.18Z" fill="#E33825"/>
<path d="M305.227 224.18H281.254V247.575H305.227V224.18Z" fill="#E33825"/>
<path d="M334.399 224.18H310.426V247.575H334.399V224.18Z" fill="#E33825"/>
<path d="M363.477 224.18H339.504V247.575H363.477V224.18Z" fill="#E33825"/>
<path d="M392.649 224.18H368.676V247.575H392.649V224.18Z" fill="#E33825"/>
<path d="M421.723 224.18H397.75V247.575H421.723V224.18Z" fill="#E33825"/>
<path d="M450.895 224.18H426.922V247.575H450.895V224.18Z" fill="#E33825"/>
<path d="M246.981 252.871H223.008V276.267H246.981V252.871Z" fill="#E33825"/>
<path d="M276.153 252.871H252.18V276.267H276.153V252.871Z" fill="#E33825"/>
<path d="M305.227 252.871H281.254V276.267H305.227V252.871Z" fill="#E33825"/>
<path d="M334.399 252.871H310.426V276.267H334.399V252.871Z" fill="#E33825"/>
<path d="M363.477 252.871H339.504V276.267H363.477V252.871Z" fill="#E33825"/>
<path d="M392.649 252.871H368.676V276.267H392.649V252.871Z" fill="#E33825"/>
<path d="M421.723 252.871H397.75V276.267H421.723V252.871Z" fill="#E33825"/>
<path d="M450.895 252.871H426.922V276.267H450.895V252.871Z" fill="#E33825"/>
<path d="M246.981 281.656H223.008V305.052H246.981V281.656Z" fill="#E33825"/>
<path d="M276.153 281.656H252.18V305.052H276.153V281.656Z" fill="#E33825"/>
<path d="M305.227 281.656H281.254V305.052H305.227V281.656Z" fill="#E33825"/>
<path d="M334.399 281.656H310.426V305.052H334.399V281.656Z" fill="#E33825"/>
<path d="M334.399 339.902H310.426V363.298H334.399V339.902Z" fill="#E33825"/>
<path d="M363.477 281.656H339.504V305.052H363.477V281.656Z" fill="#E33825"/>
<path d="M392.649 281.656H368.676V305.052H392.649V281.656Z" fill="#E33825"/>
<path d="M421.723 281.656H397.75V305.052H421.723V281.656Z" fill="#E33825"/>
<path d="M450.895 281.656H426.922V305.052H450.895V281.656Z" fill="#E33825"/>
<path d="M246.981 310.445H223.008V333.841H246.981V310.445Z" fill="#E33825"/>
<path d="M276.153 310.445H252.18V333.841H276.153V310.445Z" fill="#E33825"/>
<path d="M305.227 310.445H281.254V333.841H305.227V310.445Z" fill="#E33825"/>
<path d="M334.399 310.445H310.426V333.841H334.399V310.445Z" fill="#E33825"/>
<path d="M363.477 310.445H339.504V333.841H363.477V310.445Z" fill="#E33825"/>
<path d="M392.649 310.445H368.676V333.841H392.649V310.445Z" fill="#E33825"/>
<path d="M363.477 339.906H339.504V363.302H363.477V339.906Z" fill="#E33825"/>
<path d="M392.649 339.906H368.676V363.302H392.649V339.906Z" fill="#E33825"/>
<path d="M421.723 310.445H397.75V333.841H421.723V310.445Z" fill="#E33825"/>
<path d="M421.723 339.906H397.75V363.302H421.723V339.906Z" fill="#E33825"/>
<path d="M450.895 310.445H426.922V333.841H450.895V310.445Z" fill="#E33825"/>
<path d="M494.523 236.305C502.748 230.079 501.558 214.652 491.865 201.849C482.172 189.046 467.648 183.714 459.423 189.941C451.199 196.167 452.389 211.594 462.081 224.397C471.774 237.2 486.299 242.532 494.523 236.305Z" fill="white" stroke="#0F0E42" stroke-width="2" stroke-miterlimit="10" stroke-linecap="round" stroke-linejoin="round"/>
<path d="M467.454 197.892C467.454 197.892 457.923 197.218 454.457 207.712" stroke="#0F0E42" stroke-width="2" stroke-miterlimit="10" stroke-linecap="round" stroke-linejoin="round"/>
<path d="M477.661 211.372C474.003 210.987 463.316 213.972 460.812 222.637" stroke="#0F0E42" stroke-width="2" stroke-miterlimit="10" stroke-linecap="round" stroke-linejoin="round"/>
<path d="M486.997 225.142C486.997 225.142 477.466 224.468 474 234.962" stroke="#0F0E42" stroke-width="2" stroke-miterlimit="10" stroke-linecap="round" stroke-linejoin="round"/>
<path d="M212.658 221.221C222.351 208.418 223.541 192.992 215.316 186.765C207.092 180.539 192.567 185.87 182.874 198.673C173.182 211.476 171.992 226.903 180.216 233.129C188.441 239.356 202.965 234.024 212.658 221.221Z" fill="white" stroke="#0F0E42" stroke-width="2" stroke-miterlimit="10" stroke-linecap="round" stroke-linejoin="round"/>
<path d="M207.312 194.724C207.312 194.724 216.844 194.05 220.31 204.544" stroke="#0F0E42" stroke-width="2" stroke-miterlimit="10" stroke-linecap="round" stroke-linejoin="round"/>
<path d="M197.105 208.201C200.764 207.815 211.451 210.8 213.954 219.465" stroke="#0F0E42" stroke-width="2" stroke-miterlimit="10" stroke-linecap="round" stroke-linejoin="round"/>
<path d="M187.77 221.966C187.77 221.966 197.301 221.292 200.767 231.786" stroke="#0F0E42" stroke-width="2" stroke-miterlimit="10" stroke-linecap="round" stroke-linejoin="round"/>
<path d="M254.778 30.9492C254.778 30.9492 242.84 59.1585 249.675 83.1316" stroke="#0F0E42" stroke-width="2" stroke-miterlimit="10" stroke-linecap="round" stroke-linejoin="round"/>
<path d="M241.395 49.6328C241.395 49.6328 233.981 78.0347 246.208 96.2311" stroke="#0F0E42" stroke-width="2" stroke-miterlimit="10" stroke-linecap="round" stroke-linejoin="round"/>
<path d="M265.273 338.845C265.273 404.699 230.325 419.719 187.481 419.719C144.638 419.719 106.801 404.603 106.801 338.845C106.801 273.088 143.097 188.941 186.037 188.941C228.977 188.941 265.273 272.992 265.273 338.845Z" fill="white" stroke="#0F0E42" stroke-width="2" stroke-miterlimit="10" stroke-linecap="round" stroke-linejoin="round"/>
<path d="M117.773 267.41C117.773 267.41 148.871 285.606 178.139 285.991C207.408 286.377 231.959 282.044 255.45 269.528C251.214 256.145 250.925 252.679 250.925 252.679L123.55 250.754L117.773 267.41Z" fill="#E33825" stroke="#0F0E42" stroke-width="2" stroke-miterlimit="10" stroke-linecap="round" stroke-linejoin="round"/>
<path d="M269.026 222.835C267.775 213.303 263.538 203.772 261.42 199.536C260.65 197.995 260.458 196.262 260.843 194.626C262.094 188.849 264.79 174.215 264.405 158.136C263.924 137.34 255.644 128.483 244.668 128.002C233.596 127.52 215.207 147.931 212.03 151.397C208.853 154.863 208.468 157.462 204.713 157.462C201.054 157.462 189.02 156.596 189.02 156.596H188.731C188.731 156.596 176.696 156.5 173.038 156.211C169.379 155.922 169.187 153.323 166.202 149.568C163.314 145.909 146.465 124.054 135.489 123.669C124.418 123.284 115.56 131.564 113.442 152.167C111.805 168.149 113.346 182.976 114.212 188.849C114.405 190.582 114.116 192.219 113.249 193.759C110.842 197.899 105.836 207.045 103.814 216.384C102.755 221.487 97.9412 242.475 117.389 255.377C136.837 268.278 184.302 271.648 184.302 271.648C184.398 271.648 184.398 271.648 184.495 271.648C184.591 271.648 184.591 271.648 184.687 271.648C184.687 271.648 232.248 271.936 252.659 260.672C272.877 249.311 269.7 228.034 269.026 222.835Z" fill="white" stroke="#0F0E42" stroke-width="2" stroke-miterlimit="10" stroke-linecap="round" stroke-linejoin="round"/>
<path d="M137.512 193.473C137.512 193.473 160.137 188.659 170.535 204.641C163.988 202.235 155.034 192.896 137.512 193.473Z" fill="#0F0E42" stroke="#0F0E42" stroke-width="2" stroke-miterlimit="10" stroke-linecap="round" stroke-linejoin="round"/>
<path d="M172.137 187.639C173.357 185.396 171.732 182.158 168.509 180.405C165.286 178.653 161.685 179.05 160.465 181.292C159.246 183.534 160.871 186.772 164.094 188.525C167.317 190.278 170.918 189.881 172.137 187.639Z" fill="#0F0E42" stroke="#0F0E42" stroke-width="2" stroke-miterlimit="10" stroke-linecap="round" stroke-linejoin="round"/>
<path d="M153.3 218.308C153.3 218.308 139.917 208.777 116.137 210.702" stroke="#0F0E42" stroke-width="2" stroke-miterlimit="10" stroke-linecap="round" stroke-linejoin="round"/>
<path d="M148.488 225.245C148.488 225.245 129.811 220.431 116.043 226.015" stroke="#0F0E42" stroke-width="2" stroke-miterlimit="10" stroke-linecap="round" stroke-linejoin="round"/>
<path d="M147.622 234C147.622 234 134.432 232.845 120.375 241.51" stroke="#0F0E42" stroke-width="2" stroke-miterlimit="10" stroke-linecap="round" stroke-linejoin="round"/>
<path d="M162.545 228.227C162.545 228.227 162.16 235.929 171.21 234.87C180.26 233.811 178.624 226.686 186.037 227.457" stroke="#0F0E42" stroke-width="2" stroke-miterlimit="10" stroke-linecap="round" stroke-linejoin="round"/>
<path d="M121.336 184.805C121.336 184.805 135.489 164.78 164.372 158.329C157.44 148.605 144.924 132.431 135.297 133.778C125.765 135.03 119.315 149.664 121.336 184.805Z" fill="#E33825" stroke="#0F0E42" stroke-width="2" stroke-miterlimit="10" stroke-linecap="round" stroke-linejoin="round"/>
<path d="M237.161 197.321C237.161 197.321 215.017 190.774 203.367 205.889C210.107 203.964 219.831 195.395 237.161 197.321Z" fill="#0F0E42" stroke="#0F0E42" stroke-width="2" stroke-miterlimit="10" stroke-linecap="round" stroke-linejoin="round"/>
<path d="M211.114 190.355C214.463 188.858 216.334 185.756 215.292 183.426C214.251 181.096 210.691 180.421 207.342 181.918C203.993 183.415 202.122 186.518 203.163 188.848C204.205 191.178 207.764 191.853 211.114 190.355Z" fill="#0F0E42" stroke="#0F0E42" stroke-width="2" stroke-miterlimit="10" stroke-linecap="round" stroke-linejoin="round"/>
<path d="M219.539 220.908C219.539 220.908 237.158 212.917 258.531 217.442" stroke="#0F0E42" stroke-width="2" stroke-miterlimit="10" stroke-linecap="round" stroke-linejoin="round"/>
<path d="M223.777 228.128C223.777 228.128 242.744 224.758 256.127 231.401" stroke="#0F0E42" stroke-width="2" stroke-miterlimit="10" stroke-linecap="round" stroke-linejoin="round"/>
<path d="M223.871 236.988C223.871 236.988 237.061 236.892 250.444 246.616" stroke="#0F0E42" stroke-width="2" stroke-miterlimit="10" stroke-linecap="round" stroke-linejoin="round"/>
<path d="M200.285 217.249C200.285 214.842 192.294 214.072 187.961 213.783L186.613 213.687C185.747 213.687 185.266 213.687 185.266 213.687C180.933 213.591 172.942 213.783 172.75 216.19C172.557 218.597 180.548 222.833 184.784 224.951C184.784 224.951 184.784 224.951 186.132 225.625C186.902 225.336 187.48 225.048 187.48 225.048C192.005 223.218 200.285 219.656 200.285 217.249Z" fill="#E33825" stroke="#0F0E42" stroke-width="2" stroke-miterlimit="10" stroke-linecap="round" stroke-linejoin="round"/>
<path d="M209.528 230.057C209.528 230.057 209.336 237.759 200.382 236.026C191.428 234.293 193.642 227.264 186.133 227.457" stroke="#0F0E42" stroke-width="2" stroke-miterlimit="10" stroke-linecap="round" stroke-linejoin="round"/>
<path d="M253.91 189.908C253.91 189.908 241.298 168.823 212.992 160.158C220.598 151.012 234.366 135.896 243.897 137.918C253.429 140.036 258.724 155.056 253.91 189.908Z" fill="#E33825" stroke="#0F0E42" stroke-width="2" stroke-miterlimit="10" stroke-linecap="round" stroke-linejoin="round"/>
<path d="M72.3305 350.207C72.3305 350.207 35.2637 339.424 32.0866 316.703C28.9094 293.981 50.9569 286.953 50.9569 286.953L115.174 306.786L72.3305 350.207Z" fill="white" stroke="#0F0E42" stroke-width="2" stroke-miterlimit="10" stroke-linecap="round" stroke-linejoin="round"/>
<path d="M312.157 324.789C312.157 324.789 345.661 305.534 343.351 282.716C341.04 259.898 318.03 258.262 318.03 258.262L260.359 292.633L312.157 324.789Z" fill="white" stroke="#0F0E42" stroke-width="2" stroke-miterlimit="10" stroke-linecap="round" stroke-linejoin="round"/>
<path d="M131.157 304.468L313.314 282.709L312.062 272.311C311.677 268.941 308.596 266.534 305.227 266.919L58.7563 296.38C55.3866 296.765 53.9425 300.616 54.2313 303.12L55.4829 313.518C119.604 305.912 131.157 304.468 131.157 304.468Z" fill="#0F0E42" stroke="white" stroke-width="2" stroke-miterlimit="10" stroke-linecap="round" stroke-linejoin="round"/>
<path d="M333.242 450.615L75.4113 481.424L55.5781 313.516L313.409 282.707L333.242 450.615Z" fill="#0F0E42" stroke="white" stroke-width="2" stroke-miterlimit="10" stroke-linecap="round" stroke-linejoin="round"/>
<path d="M284.05 274.971L278.219 275.668L278.916 281.499L284.747 280.802L284.05 274.971Z" stroke="#E33825" stroke-width="2" stroke-miterlimit="10" stroke-linecap="round" stroke-linejoin="round"/>
<path d="M294.541 279.629L288.668 280.399" stroke="#E33825" stroke-width="2" stroke-miterlimit="10" stroke-linecap="round" stroke-linejoin="round"/>
<path d="M298.297 279.246C298.489 279.15 303.496 272.699 303.496 272.699L298.297 279.246Z" fill="#79DBE8"/>
<path d="M298.297 279.246C298.489 279.15 303.496 272.699 303.496 272.699" stroke="#0F0E42" stroke-width="2" stroke-miterlimit="10" stroke-linecap="round" stroke-linejoin="round"/>
<path d="M297.621 273.371C297.717 273.564 304.168 278.57 304.168 278.57L297.621 273.371Z" fill="#79DBE8"/>
<path d="M297.621 273.371C297.717 273.564 304.168 278.57 304.168 278.57" stroke="#0F0E42" stroke-width="2" stroke-miterlimit="10" stroke-linecap="round" stroke-linejoin="round"/>
<path d="M116.63 343.536L76.4805 348.336L85.4058 422.995L125.555 418.195L116.63 343.536Z" fill="#E33825"/>
<path d="M165.341 337.665L125.191 342.465L134.117 417.124L174.266 412.324L165.341 337.665Z" fill="#E33825"/>
<path d="M214.157 331.88L174.008 336.68L182.933 411.339L223.083 406.539L214.157 331.88Z" fill="#E33825"/>
<path opacity="0.58" d="M297.134 301.289L149.25 318.969L155.113 368.008L302.996 350.329L297.134 301.289Z" fill="#FFC228"/>
<path opacity="0.58" d="M315.915 452.735L168.033 470.354L161.871 424.141L309.753 406.426L315.915 452.735Z" fill="#FFC228"/>
<path d="M339.301 294.512C346.728 287.353 343.715 272.177 332.571 260.615C321.426 249.053 306.371 245.484 298.944 252.643C291.517 259.802 294.53 274.978 305.675 286.54C316.819 298.102 331.874 301.671 339.301 294.512Z" fill="white" stroke="#0F0E42" stroke-width="2" stroke-miterlimit="10" stroke-linecap="round" stroke-linejoin="round"/>
<path d="M307.828 259.512C307.828 259.512 298.296 259.993 296.082 270.872" stroke="#0F0E42" stroke-width="2" stroke-miterlimit="10" stroke-linecap="round" stroke-linejoin="round"/>
<path d="M319.572 271.641C315.914 271.641 305.708 275.877 304.168 284.831" stroke="#0F0E42" stroke-width="2" stroke-miterlimit="10" stroke-linecap="round" stroke-linejoin="round"/>
<path d="M330.453 284.254C330.453 284.254 320.921 284.735 318.707 295.615" stroke="#0F0E42" stroke-width="2" stroke-miterlimit="10" stroke-linecap="round" stroke-linejoin="round"/>
<path d="M69.6424 311.475C77.747 297.612 77.0978 282.153 68.1924 276.947C59.2871 271.741 45.4978 278.759 37.3933 292.622C29.2888 306.484 29.938 321.943 38.8433 327.149C47.7487 332.356 61.5379 325.338 69.6424 311.475Z" fill="white" stroke="#0F0E42" stroke-width="2" stroke-miterlimit="10" stroke-linecap="round" stroke-linejoin="round"/>
<path d="M61.1641 285.797C61.1641 285.797 70.5993 283.968 75.2206 294.077" stroke="#0F0E42" stroke-width="2" stroke-miterlimit="10" stroke-linecap="round" stroke-linejoin="round"/>
<path d="M52.6914 300.338C56.2537 299.471 67.2293 301.204 70.7916 309.58" stroke="#0F0E42" stroke-width="2" stroke-miterlimit="10" stroke-linecap="round" stroke-linejoin="round"/>
<path d="M44.9883 315.258C44.9883 315.258 54.4235 313.429 59.0448 323.538" stroke="#0F0E42" stroke-width="2" stroke-miterlimit="10" stroke-linecap="round" stroke-linejoin="round"/>
<path d="M415.461 304.576C415.461 304.576 379.934 289.46 379.453 266.546C378.971 243.632 401.693 239.203 401.693 239.203L463.022 266.546L415.461 304.576Z" fill="white" stroke="#0F0E42" stroke-width="2" stroke-miterlimit="10" stroke-linecap="round" stroke-linejoin="round"/>
<path d="M451.566 290.324C449.255 357.044 484.107 373.604 527.529 375.048C571.046 376.589 609.75 362.628 612.156 295.908C614.467 229.188 580.674 142.731 537.156 141.19C493.735 139.746 453.876 223.604 451.566 290.324Z" fill="white" stroke="#0F0E42" stroke-width="2" stroke-miterlimit="10" stroke-linecap="round" stroke-linejoin="round"/>
<path d="M601.086 212.818C601.086 212.818 572.684 235.829 543.415 240.739C514.147 245.649 488.826 245.071 463.312 236.117C465.527 222.061 465.334 218.595 465.334 218.595L592.709 197.125L601.086 212.818Z" fill="#E33825" stroke="#0F0E42" stroke-width="2" stroke-miterlimit="10" stroke-linecap="round" stroke-linejoin="round"/>
<path d="M532.053 268.176C541.305 268.176 548.805 260.676 548.805 251.424C548.805 242.172 541.305 234.672 532.053 234.672C522.801 234.672 515.301 242.172 515.301 251.424C515.301 260.676 522.801 268.176 532.053 268.176Z" fill="#E33825" stroke="#0F0E42" stroke-width="2" stroke-miterlimit="10" stroke-linecap="round" stroke-linejoin="round"/>
<path d="M442.613 191.254C442.421 181.53 445.213 171.325 446.657 166.704C447.139 165.067 447.139 163.238 446.561 161.601C444.443 156.017 439.436 141.768 437.414 125.593C434.719 104.701 441.651 94.4954 452.626 92.281C463.602 90.0666 485.264 107.782 488.923 110.766C492.678 113.751 493.448 116.254 497.203 115.773C500.958 115.195 512.8 112.499 512.8 112.499L513.089 112.403C513.089 112.403 525.123 110.477 528.782 109.611C532.44 108.744 532.248 106.049 534.558 101.909C536.869 97.7688 550.444 73.3144 561.42 71.2925C572.396 69.2707 582.601 76.1064 587.896 96.5172C591.94 112.307 592.71 127.422 592.806 133.392C592.806 135.125 593.48 136.761 594.539 138.109C597.62 141.864 603.975 150.24 607.44 159.386C609.27 164.297 617.357 184.611 599.835 200.497C582.312 216.383 535.232 227.069 535.232 227.069C535.136 227.069 535.136 227.069 535.04 227.069C534.944 227.069 534.944 227.069 534.847 227.069C534.847 227.069 487.19 234.675 465.046 226.492C442.806 218.405 442.71 196.55 442.613 191.254Z" fill="white" stroke="#0F0E42" stroke-width="2" stroke-miterlimit="10" stroke-linecap="round" stroke-linejoin="round"/>
<path d="M569.988 141.672C569.988 141.672 546.593 140.324 538.602 157.943C544.763 154.477 552.369 143.694 569.988 141.672Z" fill="#0F0E42" stroke="#0F0E42" stroke-width="2" stroke-miterlimit="10" stroke-linecap="round" stroke-linejoin="round"/>
<path d="M542.568 140.712C545.532 138.46 546.683 134.987 545.138 132.955C543.594 130.923 539.94 131.1 536.976 133.352C534.012 135.604 532.861 139.077 534.405 141.11C535.949 143.142 539.604 142.964 542.568 140.712Z" fill="#0F0E42" stroke="#0F0E42" stroke-width="2" stroke-miterlimit="10" stroke-linecap="round" stroke-linejoin="round"/>
<path d="M557.953 169.013C557.953 169.013 569.892 157.46 594.057 155.727" stroke="#0F0E42" stroke-width="2" stroke-miterlimit="10" stroke-linecap="round" stroke-linejoin="round"/>
<path d="M563.828 175.176C563.828 175.176 581.832 167.473 596.466 170.939" stroke="#0F0E42" stroke-width="2" stroke-miterlimit="10" stroke-linecap="round" stroke-linejoin="round"/>
<path d="M565.945 183.841C565.945 183.841 578.943 180.664 594.347 187.211" stroke="#0F0E42" stroke-width="2" stroke-miterlimit="10" stroke-linecap="round" stroke-linejoin="round"/>
<path d="M550.157 180.375C550.157 180.375 551.697 187.981 542.455 188.366C533.212 188.751 533.79 181.338 526.473 183.167" stroke="#0F0E42" stroke-width="2" stroke-miterlimit="10" stroke-linecap="round" stroke-linejoin="round"/>
<path d="M584.815 130.503C584.815 130.503 567.485 112.596 537.543 110.574C542.935 99.7908 553.044 81.6907 562.96 81.4981C572.877 81.3055 581.445 94.9769 584.815 130.503Z" fill="#E33825" stroke="#0F0E42" stroke-width="2" stroke-miterlimit="10" stroke-linecap="round" stroke-linejoin="round"/>
<path d="M470.629 160.831C470.629 160.831 491.81 150.818 505.866 164.297C498.838 163.334 487.766 156.21 470.629 160.831Z" fill="#0F0E42" stroke="#0F0E42" stroke-width="2" stroke-miterlimit="10" stroke-linecap="round" stroke-linejoin="round"/>
<path d="M503.441 147.143C504.118 144.682 501.759 141.886 498.17 140.898C494.582 139.91 491.123 141.103 490.446 143.564C489.768 146.025 492.128 148.821 495.716 149.809C499.305 150.797 502.763 149.603 503.441 147.143Z" fill="#0F0E42" stroke="#0F0E42" stroke-width="2" stroke-miterlimit="10" stroke-linecap="round" stroke-linejoin="round"/>
<path d="M491.909 181.721C491.909 181.721 473.038 176.426 452.242 184.224" stroke="#0F0E42" stroke-width="2" stroke-miterlimit="10" stroke-linecap="round" stroke-linejoin="round"/>
<path d="M488.731 189.618C488.731 189.618 469.187 189.137 456.863 197.802" stroke="#0F0E42" stroke-width="2" stroke-miterlimit="10" stroke-linecap="round" stroke-linejoin="round"/>
<path d="M489.98 198.477C489.98 198.477 476.694 200.402 464.852 212.148" stroke="#0F0E42" stroke-width="2" stroke-miterlimit="10" stroke-linecap="round" stroke-linejoin="round"/>
<path d="M510.682 175.079C510.296 172.672 518.191 170.65 522.427 169.784L523.775 169.495C524.642 169.302 525.123 169.206 525.123 169.206C529.456 168.436 537.447 167.377 538.024 169.784C538.602 172.191 531.285 177.582 527.241 180.374C527.241 180.374 527.241 180.374 525.99 181.241C525.219 181.048 524.546 180.952 524.546 180.952C519.828 179.893 511.067 177.486 510.682 175.079Z" fill="#E33825" stroke="#0F0E42" stroke-width="2" stroke-miterlimit="10" stroke-linecap="round" stroke-linejoin="round"/>
<path d="M503.363 189.423C503.363 189.423 504.807 197.126 513.472 194.045C522.137 190.964 518.864 184.224 526.47 183.262" stroke="#0F0E42" stroke-width="2" stroke-miterlimit="10" stroke-linecap="round" stroke-linejoin="round"/>
<path d="M452.721 156.017C452.721 156.017 462.156 133.007 489.113 119.913C480.063 111.922 463.985 98.8281 454.742 102.39C445.5 105.953 442.611 121.742 452.721 156.017Z" fill="#E33825" stroke="#0F0E42" stroke-width="2" stroke-miterlimit="10" stroke-linecap="round" stroke-linejoin="round"/>
<path d="M651.245 309.001C651.245 309.001 686.771 293.886 687.252 270.972C687.734 248.058 665.012 243.629 665.012 243.629L603.684 270.972L651.245 309.001Z" fill="white" stroke="#0F0E42" stroke-width="2" stroke-miterlimit="10" stroke-linecap="round" stroke-linejoin="round"/>
<path d="M473.519 267.513H657.024V257.115C657.024 253.745 654.232 250.953 650.862 250.953H402.659C399.289 250.953 397.363 254.515 397.363 257.115V267.513C461.869 267.513 473.519 267.513 473.519 267.513Z" fill="#0F0E42" stroke="white" stroke-width="2" stroke-miterlimit="10" stroke-linecap="round" stroke-linejoin="round"/>
<path d="M657.024 267.512H397.363V449.669H657.024V267.512Z" fill="#0F0E42" stroke="white" stroke-width="2" stroke-miterlimit="10" stroke-linecap="round" stroke-linejoin="round"/>
<path d="M628.814 256.348H622.941V262.221H628.814V256.348Z" stroke="#E33825" stroke-width="2" stroke-miterlimit="10" stroke-linecap="round" stroke-linejoin="round"/>
<path d="M638.731 262.316H632.762" stroke="#E33825" stroke-width="2" stroke-miterlimit="10" stroke-linecap="round" stroke-linejoin="round"/>
<path d="M642.484 262.318C642.677 262.222 648.357 256.445 648.357 256.445L642.484 262.318Z" fill="#79DBE8"/>
<path d="M642.484 262.318C642.677 262.222 648.357 256.445 648.357 256.445" stroke="#E33825" stroke-width="2" stroke-miterlimit="10" stroke-linecap="round" stroke-linejoin="round"/>
<path d="M642.484 256.348C642.581 256.54 648.357 262.221 648.357 262.221L642.484 256.348Z" fill="#79DBE8"/>
<path d="M642.484 256.348C642.581 256.54 648.357 262.221 648.357 262.221" stroke="#E33825" stroke-width="2" stroke-miterlimit="10" stroke-linecap="round" stroke-linejoin="round"/>
<path d="M437.223 281.566H413.25V449.667H437.223V281.566Z" fill="#E33825"/>
<path d="M466.297 281.566H442.324V449.667H466.297V281.566Z" fill="#E33825"/>
<path d="M495.469 281.566H471.496V449.667H495.469V281.566Z" fill="#E33825"/>
<path d="M524.641 281.566H500.668V449.667H524.641V281.566Z" fill="#E33825"/>
<path d="M553.719 281.566H529.746V449.667H553.719V281.566Z" fill="#E33825"/>
<path d="M582.891 281.566H558.918V449.667H582.891V281.566Z" fill="#E33825"/>
<path d="M611.965 281.566H587.992V449.667H611.965V281.566Z" fill="#E33825"/>
<path d="M641.137 281.566H617.164V449.667H641.137V281.566Z" fill="#E33825"/>
<path d="M681.797 277.723C690.021 271.497 688.831 256.07 679.139 243.267C669.446 230.464 654.921 225.132 646.697 231.359C638.472 237.585 639.662 253.012 649.355 265.815C659.048 278.618 673.572 283.95 681.797 277.723Z" fill="white" stroke="#0F0E42" stroke-width="2" stroke-miterlimit="10" stroke-linecap="round" stroke-linejoin="round"/>
<path d="M654.712 239.294C654.712 239.294 645.181 238.62 641.715 249.114" stroke="#0F0E42" stroke-width="2" stroke-miterlimit="10" stroke-linecap="round" stroke-linejoin="round"/>
<path d="M664.919 252.775C661.26 252.39 650.574 255.374 648.07 264.039" stroke="#0F0E42" stroke-width="2" stroke-miterlimit="10" stroke-linecap="round" stroke-linejoin="round"/>
<path d="M674.255 266.544C674.255 266.544 664.724 265.87 661.258 276.364" stroke="#0F0E42" stroke-width="2" stroke-miterlimit="10" stroke-linecap="round" stroke-linejoin="round"/>
<path d="M417.342 265.788C427.034 252.984 428.224 237.558 420 231.332C411.775 225.105 397.251 230.437 387.558 243.24C377.865 256.043 376.675 271.469 384.9 277.696C393.124 283.922 407.649 278.591 417.342 265.788Z" fill="white" stroke="#0F0E42" stroke-width="2" stroke-miterlimit="10" stroke-linecap="round" stroke-linejoin="round"/>
<path d="M411.996 239.298C411.996 239.298 421.528 238.624 424.994 249.118" stroke="#0F0E42" stroke-width="2" stroke-miterlimit="10" stroke-linecap="round" stroke-linejoin="round"/>
<path d="M401.789 252.775C405.448 252.39 416.134 255.374 418.638 264.039" stroke="#0F0E42" stroke-width="2" stroke-miterlimit="10" stroke-linecap="round" stroke-linejoin="round"/>
<path d="M392.453 266.544C392.453 266.544 401.985 265.87 405.451 276.364" stroke="#0F0E42" stroke-width="2" stroke-miterlimit="10" stroke-linecap="round" stroke-linejoin="round"/>
<path d="M358.371 367.34H533.21V357.424C533.21 354.15 530.611 351.551 527.338 351.551H290.784C287.51 351.551 285.777 355.017 285.777 357.424V367.34C347.202 367.34 358.371 367.34 358.371 367.34Z" fill="#0F0E42" stroke="white" stroke-width="2" stroke-miterlimit="10" stroke-linecap="round" stroke-linejoin="round"/>
<path d="M533.21 367.34H285.777V506.461H533.21V367.34Z" fill="#0F0E42" stroke="white" stroke-width="2" stroke-miterlimit="10" stroke-linecap="round" stroke-linejoin="round"/>
<path d="M506.446 356.652H500.766V362.333H506.446V356.652Z" fill="#0F0E42" stroke="white" stroke-width="2" stroke-miterlimit="10" stroke-linecap="round" stroke-linejoin="round"/>
<path d="M515.786 362.234H510.105" stroke="white" stroke-width="2" stroke-miterlimit="10" stroke-linecap="round" stroke-linejoin="round"/>
<path d="M519.445 362.235C519.638 362.139 525.126 356.555 525.126 356.555L519.445 362.235Z" fill="#0F0E42"/>
<path d="M519.445 362.235C519.638 362.139 525.126 356.555 525.126 356.555" stroke="white" stroke-width="2" stroke-miterlimit="10" stroke-linecap="round" stroke-linejoin="round"/>
<path d="M519.445 356.652C519.542 356.845 525.126 362.333 525.126 362.333L519.445 356.652Z" fill="#0F0E42"/>
<path d="M519.445 356.652C519.542 356.845 525.126 362.333 525.126 362.333" stroke="white" stroke-width="2" stroke-miterlimit="10" stroke-linecap="round" stroke-linejoin="round"/>
<path d="M285.777 381.785H533.21" stroke="white" stroke-width="2" stroke-miterlimit="10" stroke-linecap="round" stroke-linejoin="round"/>
<path d="M285.777 395.555H533.21" stroke="white" stroke-width="2" stroke-miterlimit="10" stroke-linecap="round" stroke-linejoin="round"/>
<path d="M285.777 409.422H533.21" stroke="white" stroke-width="2" stroke-miterlimit="10" stroke-linecap="round" stroke-linejoin="round"/>
<path d="M285.777 423.184H533.21" stroke="white" stroke-width="2" stroke-miterlimit="10" stroke-linecap="round" stroke-linejoin="round"/>
<path d="M285.777 436.953H533.21" stroke="white" stroke-width="2" stroke-miterlimit="10" stroke-linecap="round" stroke-linejoin="round"/>
<path d="M410.359 367.348V506.372" stroke="white" stroke-width="2" stroke-miterlimit="10" stroke-linecap="round" stroke-linejoin="round"/>
<path d="M396.594 367.348V506.372" stroke="white" stroke-width="2" stroke-miterlimit="10" stroke-linecap="round" stroke-linejoin="round"/>
<path d="M382.824 367.348V506.372" stroke="white" stroke-width="2" stroke-miterlimit="10" stroke-linecap="round" stroke-linejoin="round"/>
<path d="M369.059 367.348V506.372" stroke="white" stroke-width="2" stroke-miterlimit="10" stroke-linecap="round" stroke-linejoin="round"/>
<path d="M355.195 367.348V506.372" stroke="white" stroke-width="2" stroke-miterlimit="10" stroke-linecap="round" stroke-linejoin="round"/>
<path d="M341.426 367.348V506.372" stroke="white" stroke-width="2" stroke-miterlimit="10" stroke-linecap="round" stroke-linejoin="round"/>
<path d="M327.66 367.348V506.372" stroke="white" stroke-width="2" stroke-miterlimit="10" stroke-linecap="round" stroke-linejoin="round"/>
<path d="M313.891 367.348V506.372" stroke="white" stroke-width="2" stroke-miterlimit="10" stroke-linecap="round" stroke-linejoin="round"/>
<path d="M300.027 367.348V506.372" stroke="white" stroke-width="2" stroke-miterlimit="10" stroke-linecap="round" stroke-linejoin="round"/>
<path d="M520.023 367.348V506.372" stroke="white" stroke-width="2" stroke-miterlimit="10" stroke-linecap="round" stroke-linejoin="round"/>
<path d="M506.254 367.348V506.372" stroke="white" stroke-width="2" stroke-miterlimit="10" stroke-linecap="round" stroke-linejoin="round"/>
<path d="M492.391 367.348V506.372" stroke="white" stroke-width="2" stroke-miterlimit="10" stroke-linecap="round" stroke-linejoin="round"/>
<path d="M478.625 367.348V506.372" stroke="white" stroke-width="2" stroke-miterlimit="10" stroke-linecap="round" stroke-linejoin="round"/>
<path d="M464.855 367.348V506.372" stroke="white" stroke-width="2" stroke-miterlimit="10" stroke-linecap="round" stroke-linejoin="round"/>
<path d="M451.09 367.348V506.372" stroke="white" stroke-width="2" stroke-miterlimit="10" stroke-linecap="round" stroke-linejoin="round"/>
<path d="M437.223 367.348V506.372" stroke="white" stroke-width="2" stroke-miterlimit="10" stroke-linecap="round" stroke-linejoin="round"/>
<path d="M423.457 367.348V506.372" stroke="white" stroke-width="2" stroke-miterlimit="10" stroke-linecap="round" stroke-linejoin="round"/>
<path d="M96.5913 261.44C96.5913 261.44 68.6709 233.809 93.3179 193.18" stroke="#0F0E42" stroke-width="2" stroke-miterlimit="10" stroke-linecap="round" stroke-linejoin="round"/>
<path d="M46.8164 353.672L54.2298 416.541" stroke="#0F0E42" stroke-width="2" stroke-miterlimit="10" stroke-linecap="round" stroke-linejoin="round"/>
<path d="M611.484 121.547C611.484 121.547 637.961 149.371 623.519 190.385" stroke="#0F0E42" stroke-width="2" stroke-miterlimit="10" stroke-linecap="round" stroke-linejoin="round"/>
<path d="M607.535 101.617C607.535 101.617 629.39 122.895 632.952 149.371" stroke="#0F0E42" stroke-width="2" stroke-miterlimit="10" stroke-linecap="round" stroke-linejoin="round"/>
<path d="M455.516 77.4531C455.516 77.4531 477.563 79.1861 499.418 99.5969" stroke="#0F0E42" stroke-width="2" stroke-miterlimit="10" stroke-linecap="round" stroke-linejoin="round"/>
<path d="M667.805 329.797V416.543" stroke="#0F0E42" stroke-width="2" stroke-miterlimit="10" stroke-linecap="round" stroke-linejoin="round"/>
<path d="M676.664 310.445V348.09" stroke="#0F0E42" stroke-width="2" stroke-miterlimit="10" stroke-linecap="round" stroke-linejoin="round"/>
</g>
<defs>
<clipPath id="clip0_11088_179">
<rect width="718" height="448" fill="white" transform="translate(0.6875)"/>
</clipPath>
</defs>
</svg>
