<?xml version="1.0" encoding="UTF-8"?>
<svg id="_Слой_2" data-name="Слой 2" xmlns="http://www.w3.org/2000/svg" viewBox="0 0 143.46 106.75">
  <defs>
    <style>
      .cls-1 {
        fill: #fff;
      }

      .cls-2 {
        fill: #c69c6d;
      }
    </style>
  </defs>
  <g id="_Слой_1-2" data-name="Слой 1">
    <g>
      <g>
        <path class="cls-2" d="m71.83,106.25c-13.91,0-28.62-2.63-41.43-7.42-13.13-4.91-22.77-11.56-27.15-18.72-3.32-5.44-3.65-11.11-.94-16.39C14.3,40.36,22.21,25.97,27.96,17.04c6.48-10.05,10.53-13.79,14.95-13.79s7.12,4.14,9.64,8.15c3.86,6.14,8.23,13.09,19.29,13.09s15.81-7.82,20.01-14.72c2.9-4.77,5.63-9.27,10.42-9.27,7.21,0,14.25,8.81,39.15,63.37,2.5,5.47,1.95,11.28-1.59,16.78-4.57,7.1-14.18,13.63-27.07,18.4-12.58,4.65-27.12,7.21-40.92,7.21Z"/>
        <path d="m102.26,1c6.85,0,14.07,9.11,38.7,63.08,2.42,5.31,1.89,10.95-1.55,16.3-4.51,7.01-14.03,13.47-26.82,18.2-12.53,4.63-27,7.18-40.75,7.18s-28.5-2.62-41.25-7.39c-13.02-4.87-22.58-11.44-26.9-18.51-3.23-5.28-3.54-10.78-.92-15.9C14.74,40.61,22.64,26.22,28.38,17.31c6.37-9.88,10.31-13.56,14.53-13.56s6.65,3.84,9.21,7.91c3.73,5.94,8.38,13.33,19.71,13.33s16.17-7.95,20.44-14.97c2.94-4.84,5.48-9.02,10-9.02m0-1c-5.07,0-7.88,4.62-10.85,9.5-4.13,6.79-8.8,14.49-19.58,14.49s-15.08-6.83-18.87-12.86c-2.59-4.12-5.27-8.38-10.06-8.38s-8.78,3.8-15.37,14.02c-5.76,8.94-13.68,23.35-25.66,46.72-2.79,5.45-2.46,11.29.95,16.88,4.44,7.26,14.17,13.98,27.4,18.93,12.86,4.81,27.63,7.45,41.6,7.45s28.46-2.57,41.1-7.24c12.99-4.8,22.69-11.4,27.32-18.59,3.63-5.65,4.2-11.62,1.62-17.26C116.85,8.85,109.7,0,102.26,0h0Z"/>
      </g>
      <g>
        <path class="cls-2" d="m71.83,102.13c-27.73,0-56.92-10.84-65.06-24.17-2.57-4.21-2.84-8.37-.79-12.37C28.31,22.06,37.63,7.37,42.91,7.37c2.24,0,3.96,2.75,6.15,6.22,3.99,6.34,9.44,15.02,22.78,15.02s19.24-9.66,23.53-16.71c2.47-4.07,4.43-7.28,6.9-7.28,5.6,0,14.86,15.95,35.41,60.96,1.92,4.19,1.48,8.52-1.31,12.84-8.55,13.3-36.89,23.71-64.53,23.71Z"/>
        <path d="m102.26,5.12h0c5.29,0,14.77,16.45,34.95,60.67,1.84,4.03,1.41,8.19-1.27,12.36-4.03,6.26-12.83,12.14-24.79,16.56-12.08,4.46-26.05,6.92-39.32,6.92-27.58,0-56.57-10.73-64.63-23.93-2.47-4.05-2.73-8.05-.77-11.88C28.38,23.03,37.92,7.87,42.91,7.87c1.96,0,3.62,2.64,5.73,5.99,4.05,6.44,9.59,15.25,23.2,15.25s19.61-9.79,23.95-16.94c2.3-3.78,4.28-7.04,6.48-7.04m0-1c-7.4,0-9.54,23.99-30.43,23.99S49.77,6.87,42.91,6.87c-5.34,0-13.95,12.84-37.36,58.5-9.39,18.31,29.68,37.26,66.29,37.26s74.84-18.54,66.29-37.26C116.37,17.71,107.83,4.12,102.26,4.12h0Z"/>
      </g>
      <g>
        <circle class="cls-1" cx="43.22" cy="46.02" r="6.71"/>
        <path d="m43.22,39.81c3.42,0,6.21,2.78,6.21,6.21s-2.78,6.21-6.21,6.21-6.21-2.78-6.21-6.21,2.78-6.21,6.21-6.21m0-1c-3.98,0-7.21,3.23-7.21,7.21s3.23,7.21,7.21,7.21,7.21-3.23,7.21-7.21-3.23-7.21-7.21-7.21h0Z"/>
      </g>
      <g>
        <path class="cls-1" d="m101.07,53.55c-4.04,0-7.32-3.29-7.32-7.32s3.29-7.32,7.32-7.32,7.32,3.29,7.32,7.32-3.29,7.32-7.32,7.32Z"/>
        <path d="m101.07,39.4c3.76,0,6.82,3.06,6.82,6.82s-3.06,6.82-6.82,6.82-6.82-3.06-6.82-6.82,3.06-6.82,6.82-6.82m0-1c-4.32,0-7.82,3.5-7.82,7.82s3.5,7.82,7.82,7.82,7.82-3.5,7.82-7.82-3.5-7.82-7.82-7.82h0Z"/>
      </g>
      <path d="m74,65.8c-2.65,0-2.65,4.12,0,4.12s2.65-4.12,0-4.12Z"/>
      <path d="m81.78,85.05c-.4-1.53-1.3-2.89-2.26-4.13-.49-.63-1.35.25-.87.87,1.26,1.63,3.63,5.52.69,6.82-1.11.49-2.45.22-3.45-.39-1.29-.79-2.21-2.07-3.08-3.28-.46-.64-1.42-.1-1.07.62.91,1.86-.31,5.02-2.68,4.86-1.08-.07-2.04-.94-2.42-1.92-.49-1.25.14-2.46,1.38-2.92.74-.27.42-1.47-.33-1.19-1.35.49-2.41,1.61-2.47,3.1-.05,1.23.61,2.46,1.54,3.23.97.81,2.27,1.18,3.5.78,1.17-.39,2.08-1.32,2.58-2.43.22-.5.36-1.03.42-1.56,1.27,1.44,2.81,2.61,4.86,2.59,1.22-.01,2.4-.5,3.14-1.49.77-1.03.84-2.35.53-3.56Z"/>
      <path d="m45.12,45.59c-.79,0-.8,1.24,0,1.24s.8-1.24,0-1.24Z"/>
      <path d="m101.8,43.99c-.79,0-.8,1.24,0,1.24s.8-1.24,0-1.24Z"/>
      <path d="m49.97,19.99c-2.58-2.41-5.17-4.81-7.75-7.22-.5-.46-1.06-1.11-1.82-.85-.69.24-1.07,1.19-1.42,1.77-.96,1.54-1.91,3.09-2.87,4.63-1.06,1.72-2.13,3.44-3.19,5.16-.42.68.65,1.3,1.07.62,2.17-3.5,4.33-6.99,6.5-10.49.04-.07.23-.48.32-.48.09,0,.32.3.4.37l1.19,1.11,2.24,2.08c1.49,1.39,2.98,2.78,4.47,4.16.58.54,1.46-.33.87-.87Z"/>
      <path d="m109.7,17.08c-1.76-3.37-3.52-6.74-5.29-10.11-.18-.34-.71-.41-.97-.13-3.02,3.37-5.49,7.19-7.29,11.34-.31.72.75,1.35,1.07.62,1.65-3.78,3.85-7.3,6.54-10.43,1.63,3.11,3.25,6.22,4.88,9.33.37.7,1.44.08,1.07-.62Z"/>
      <path d="m64.77,66.87c-3.6.82-7.19,1.63-10.79,2.45-3.56.81-7.14,1.69-10.79,1.91-3.15.19-6.39-.11-9.31-1.37-2.25-.97-5.85-3.07-4.66-6.03.49-1.23,1.71-2.12,3.06-1.94,1.38.18,2.54,1.27,2.78,2.64.14.78,1.33.45,1.19-.33-.5-2.88-4.14-4.6-6.58-2.85-1.13.81-1.85,2.13-1.92,3.53-.08,1.66.95,3.05,2.19,4.04,6.09,4.92,14.45,3.79,21.52,2.23,4.55-1.01,9.09-2.06,13.64-3.09.77-.18.45-1.37-.33-1.19Z"/>
      <path d="m80.9,67.04c4.04.82,8.08,1.63,12.12,2.45,4,.81,8.01,1.69,12.12,1.91,3.53.19,7.18-.11,10.45-1.37,2.53-.97,6.57-3.07,5.23-6.03-.56-1.23-1.92-2.12-3.44-1.94-1.55.18-2.85,1.27-3.12,2.64-.15.78-1.49.45-1.34-.33.56-2.88,4.65-4.6,7.39-2.85,1.27.81,2.08,2.13,2.16,3.53.09,1.66-1.07,3.05-2.46,4.04-6.83,4.92-16.23,3.79-24.17,2.23-5.11-1.01-10.21-2.06-15.32-3.09-.87-.18-.5-1.37.37-1.19Z"/>
    </g>
  </g>
</svg>